<svg width="32" height="51" viewBox="0 0 32 51" fill="none" xmlns="http://www.w3.org/2000/svg">
<path d="M15.576 0.679749C6.98751 0.679749 0 11.8442 0 25.5668C0 39.2893 6.98751 50.4538 15.576 50.4538C24.1646 50.4538 31.1521 39.2893 31.1521 25.5668C31.1521 11.8442 24.1646 0.679749 15.576 0.679749ZM15.576 40.8819C14.011 40.8819 12.7664 39.8218 12.5994 37.5819C12.595 37.515 12.5994 37.4473 12.6125 37.3833C12.6255 37.3193 12.6469 37.2604 12.6752 37.2105C12.7034 37.1606 12.738 37.1208 12.7765 37.0937C12.8151 37.0665 12.8568 37.0527 12.8989 37.0531H18.2494C18.292 37.0526 18.3341 37.0666 18.373 37.0942C18.4119 37.1217 18.4467 37.1622 18.475 37.2129C18.5034 37.2636 18.5246 37.3234 18.5374 37.3883C18.5501 37.4532 18.5541 37.5216 18.549 37.5891C18.358 39.7871 17.1247 40.8819 15.576 40.8819ZM22.9148 35.1387H8.23733C7.3507 35.1387 6.88941 33.344 7.39937 32.3868C8.62224 30.0728 9.48641 29.1 9.48641 22.7191C9.48641 16.8719 11.4139 14.7971 13.006 13.7849C13.1156 13.712 13.2143 13.6032 13.296 13.4655C13.3776 13.3278 13.4403 13.1644 13.48 12.9857C13.7563 11.52 14.5381 10.2517 15.576 10.2517C16.614 10.2517 17.3943 11.52 17.6728 12.9869C17.7128 13.1656 17.7756 13.3289 17.8574 13.4666C17.9392 13.6042 18.038 13.713 18.1476 13.7861C19.7359 14.796 21.6672 16.8743 21.6672 22.7203C21.6672 29.1012 22.5306 30.074 23.7535 32.388C24.2582 33.344 23.7962 35.1387 22.9148 35.1387Z" fill="#3683F0"/>
</svg>
